<?xml version="1.0" encoding="UTF-8" standalone="no"?>
<svg
   xmlns:dc="http://purl.org/dc/elements/1.1/"
   xmlns:cc="http://creativecommons.org/ns#"
   xmlns:rdf="http://www.w3.org/1999/02/22-rdf-syntax-ns#"
   xmlns:svg="http://www.w3.org/2000/svg"
   xmlns="http://www.w3.org/2000/svg"
   xmlns:sodipodi="http://sodipodi.sourceforge.net/DTD/sodipodi-0.dtd"
   xmlns:inkscape="http://www.inkscape.org/namespaces/inkscape"
   version="1.1"
   id="Layer_1"
   x="0px"
   y="0px"
   viewBox="0 0 32 32"
   xml:space="preserve"
   sodipodi:docname="linkedin.svg"
   width="32"
   height="32"
   inkscape:version="1.0.1 (3bc2e813f5, 2020-09-07)"><metadata
   id="metadata39"><rdf:RDF><cc:Work
       rdf:about=""><dc:format>image/svg+xml</dc:format><dc:type
         rdf:resource="http://purl.org/dc/dcmitype/StillImage" /><dc:title></dc:title></cc:Work></rdf:RDF></metadata><defs
   id="defs37" /><sodipodi:namedview
   pagecolor="#ffffff"
   bordercolor="#666666"
   borderopacity="1"
   objecttolerance="10"
   gridtolerance="10"
   guidetolerance="10"
   inkscape:pageopacity="0"
   inkscape:pageshadow="2"
   inkscape:window-width="1920"
   inkscape:window-height="1057"
   id="namedview35"
   showgrid="false"
   inkscape:zoom="2.3298429"
   inkscape:cx="39.061121"
   inkscape:cy="96.748915"
   inkscape:window-x="-8"
   inkscape:window-y="-8"
   inkscape:window-maximized="1"
   inkscape:current-layer="Layer_1" />
<path
   style="fill:#0077b7;stroke-width:0.0837696"
   d="M 29.10534,0 H 2.8946597 C 1.296,0 0,1.296 0,2.8946597 V 29.105257 C 0,30.704 1.296,32 2.8946597,32 H 29.105257 C 30.704,32 32,30.704 32,29.105257 V 2.8946597 C 32,1.296 30.704,0 29.10534,0 Z M 9.9021571,27.630911 c 0,0.465257 -0.3771309,0.842387 -0.8423875,0.842387 H 5.4739267 c -0.4652565,0 -0.8423874,-0.37713 -0.8423874,-0.842387 V 12.599204 c 0,-0.465256 0.3771309,-0.842387 0.8423874,-0.842387 h 3.5858429 c 0.4652566,0 0.8423875,0.377131 0.8423875,0.842387 z M 7.2668482,10.339853 c -1.8813822,0 -3.4065759,-1.5251933 -3.4065759,-3.4065755 0,-1.8813822 1.5251937,-3.4065759 3.4065759,-3.4065759 1.8813822,0 3.4065758,1.5251937 3.4065758,3.4065759 0,1.8813822 -1.5251099,3.4065755 -3.4065758,3.4065755 z M 28.641675,27.698764 c 0,0.427728 -0.346806,0.774534 -0.774534,0.774534 h -3.847874 c -0.427728,0 -0.774534,-0.346806 -0.774534,-0.774534 v -7.050722 c 0,-1.051812 0.308524,-4.609089 -2.748733,-4.609089 -2.371435,0 -2.85244,2.434848 -2.949026,3.527539 v 8.132272 c 0,0.427728 -0.346723,0.774534 -0.774534,0.774534 h -3.72155 c -0.427728,0 -0.774534,-0.346806 -0.774534,-0.774534 V 12.531351 c 0,-0.427728 0.346806,-0.774534 0.774534,-0.774534 h 3.72155 c 0.427728,0 0.774534,0.346806 0.774534,0.774534 v 1.311413 c 0.87933,-1.319623 2.186136,-2.338178 4.968544,-2.338178 6.161424,0 6.126157,5.756315 6.126157,8.919121 z"
   id="path2" />
<g
   id="g4">
</g>
<g
   id="g6">
</g>
<g
   id="g8">
</g>
<g
   id="g10">
</g>
<g
   id="g12">
</g>
<g
   id="g14">
</g>
<g
   id="g16">
</g>
<g
   id="g18">
</g>
<g
   id="g20">
</g>
<g
   id="g22">
</g>
<g
   id="g24">
</g>
<g
   id="g26">
</g>
<g
   id="g28">
</g>
<g
   id="g30">
</g>
<g
   id="g32">
</g>
</svg>
